<svg width="73" height="53" viewBox="0 0 73 53" fill="none" xmlns="http://www.w3.org/2000/svg">
<path d="M44.0175 23.0725C44.4775 23.0725 44.8689 22.9434 45.1918 22.6851C45.555 22.4107 45.7366 22.0395 45.7366 21.5714C45.7366 21.1033 45.563 20.7401 45.216 20.4818C44.8689 20.2235 44.4694 20.0944 44.0175 20.0944C43.5574 20.0944 43.166 20.2195 42.8432 20.4697C42.4961 20.7441 42.3226 21.1113 42.3226 21.5714C42.3226 22.0314 42.4961 22.4027 42.8432 22.6851C43.166 22.9434 43.5574 23.0725 44.0175 23.0725ZM47.9278 23.0725C48.3878 23.0725 48.7793 22.9434 49.1021 22.6851C49.4653 22.4107 49.6469 22.0395 49.6469 21.5714C49.6469 21.1033 49.4734 20.7401 49.1263 20.4818C48.7793 20.2235 48.3798 20.0944 47.9278 20.0944C47.4678 20.0944 47.0763 20.2195 46.7535 20.4697C46.3984 20.7441 46.2208 21.1113 46.2208 21.5714C46.2208 22.0314 46.3984 22.4027 46.7535 22.6851C47.0683 22.9434 47.4597 23.0725 47.9278 23.0725ZM59.2835 15.385C58.5572 15.385 57.9882 15.1631 57.5765 14.7192C57.1649 14.2753 56.9591 13.6296 56.9591 12.7822V5.43364H53.4846C52.5645 5.43364 51.7453 5.5547 51.027 5.79683C50.3087 6.03895 49.6994 6.39811 49.199 6.87429C48.6905 7.35854 48.3031 7.95982 48.0368 8.67813C47.7704 9.39644 47.6373 10.2318 47.6373 11.1841V15.385H43.739C43.0126 15.385 42.4315 15.1671 41.9957 14.7313C41.568 14.2955 41.3541 13.5893 41.3541 12.6127V9.90087H42.7826V6.92272H37.9038V12.6127C37.9038 13.5651 38.0369 14.4004 38.3033 15.1187C38.5616 15.8289 38.9449 16.4262 39.4534 16.9104C39.9618 17.3947 40.5712 17.7579 41.2814 18C41.9997 18.2421 42.8189 18.3632 43.739 18.3632H51.0997V11.1841C51.0997 10.2076 51.3135 9.50136 51.7413 9.06553C52.1852 8.62971 52.7703 8.41179 53.4967 8.41179V12.7338C53.4967 13.5489 53.6178 14.2995 53.8599 14.9855C54.1101 15.6716 54.4854 16.2648 54.9858 16.7652C55.4781 17.2655 56.0875 17.657 56.8138 17.9395C57.516 18.2139 58.3271 18.3551 59.2472 18.3632H59.2835C59.6952 18.3632 60.0462 18.2179 60.3368 17.9274C60.6273 17.6368 60.7726 17.2857 60.7726 16.8741C60.7726 16.4625 60.6273 16.1114 60.3368 15.8209C60.0462 15.5303 59.6952 15.385 59.2835 15.385ZM66.1478 3.94456C66.5998 3.94456 66.9912 3.81946 67.3221 3.56926C67.6853 3.28678 67.8669 2.91552 67.8669 2.45548C67.8669 1.9793 67.6934 1.61208 67.3464 1.35381C66.9993 1.09554 66.5998 0.966405 66.1478 0.966405C65.6878 0.966405 65.2963 1.0915 64.9735 1.3417C64.6184 1.61611 64.4408 1.98737 64.4408 2.45548C64.4408 2.90745 64.6184 3.27871 64.9735 3.56926C65.2883 3.81946 65.6797 3.94456 66.1478 3.94456ZM66.1599 18.3632C67.1688 18.3632 68.0929 18.2179 68.9323 17.9274C69.7797 17.6368 70.5021 17.2212 71.0993 16.6804C71.6966 16.1316 72.1606 15.4536 72.4915 14.6465C72.8305 13.8395 73 12.9194 73 11.8863C73 10.8613 72.8305 9.9493 72.4915 9.15028C72.1606 8.35126 71.6966 7.67734 71.0993 7.12852C70.5021 6.57163 69.7797 6.15195 68.9323 5.86947C68.0929 5.57891 67.1688 5.43364 66.1599 5.43364C65.1511 5.43364 64.2229 5.58295 63.3755 5.88157C62.5361 6.17212 61.8138 6.59584 61.2084 7.15274C60.6031 7.70156 60.131 8.37547 59.792 9.17449C59.4611 9.97351 59.2956 10.8774 59.2956 11.8863C59.2956 13.2261 59.5862 14.3923 60.1673 15.385H59.2956V18.3632H66.1599ZM66.1599 15.385C65.6676 15.385 65.2156 15.3003 64.804 15.1308C64.3924 14.9532 64.0373 14.7152 63.7387 14.4165C63.44 14.1098 63.206 13.7426 63.0365 13.3149C62.8751 12.879 62.7944 12.4028 62.7944 11.8863C62.7944 11.3778 62.8751 10.9138 63.0365 10.4941C63.206 10.0663 63.436 9.6991 63.7266 9.39241C64.0171 9.07764 64.3722 8.83551 64.7919 8.66603C65.2116 8.49654 65.6676 8.41179 66.1599 8.41179C66.6684 8.41179 67.1284 8.49654 67.5401 8.66603C67.9597 8.82744 68.3149 9.05746 68.6054 9.35609C68.896 9.65471 69.1179 10.0179 69.2713 10.4457C69.4327 10.8734 69.5134 11.3536 69.5134 11.8863C69.5134 12.4028 69.4327 12.879 69.2713 13.3149C69.1179 13.7426 68.896 14.1098 68.6054 14.4165C68.3149 14.7152 67.9597 14.9532 67.5401 15.1308C67.1284 15.3003 66.6684 15.385 66.1599 15.385ZM6.51208 52.0725C6.97212 52.0725 7.36356 51.9434 7.6864 51.6851C8.04959 51.4107 8.23118 51.0395 8.23118 50.5714C8.23118 50.1033 8.05766 49.7401 7.71061 49.4818C7.36356 49.2235 6.96405 49.0944 6.51208 49.0944C6.05204 49.0944 5.66061 49.2195 5.33777 49.4697C4.99072 49.7441 4.8172 50.1113 4.8172 50.5714C4.8172 51.0314 4.99072 51.4027 5.33777 51.6851C5.66061 51.9434 6.05204 52.0725 6.51208 52.0725ZM10.4224 52.0725C10.8825 52.0725 11.2739 51.9434 11.5967 51.6851C11.9599 51.4107 12.1415 51.0395 12.1415 50.5714C12.1415 50.1033 11.968 49.7401 11.621 49.4818C11.2739 49.2235 10.8744 49.0944 10.4224 49.0944C9.96239 49.0944 9.57095 49.2195 9.24811 49.4697C8.89299 49.7441 8.71543 50.1113 8.71543 50.5714C8.71543 51.0314 8.89299 51.4027 9.24811 51.6851C9.56288 51.9434 9.95431 52.0725 10.4224 52.0725ZM21.7782 44.385C21.0518 44.385 20.4828 44.1631 20.0712 43.7192C19.6595 43.2753 19.4537 42.6296 19.4537 41.7822V34.4336H15.9792C15.0591 34.4336 14.24 34.5547 13.5216 34.7968C12.8033 35.039 12.194 35.3981 11.6936 35.8743C11.1851 36.3585 10.7977 36.9598 10.5314 37.6781C10.265 38.3964 10.1319 39.2318 10.1319 40.1841V44.385H6.23364C5.50726 44.385 4.92616 44.1671 4.49033 43.7313C4.06257 43.2955 3.84869 42.5893 3.84869 41.6127V38.9009H5.27724V35.9227H0.398392V41.6127C0.398392 42.5651 0.531561 43.4004 0.7979 44.1187C1.05617 44.8289 1.43954 45.4262 1.948 45.9104C2.45647 46.3947 3.06582 46.7579 3.77606 47C4.49436 47.2421 5.31356 47.3632 6.23364 47.3632H13.5943V40.1841C13.5943 39.2076 13.8082 38.5014 14.2359 38.0655C14.6798 37.6297 15.265 37.4118 15.9913 37.4118V41.7338C15.9913 42.5489 16.1124 43.2995 16.3545 43.9855C16.6047 44.6716 16.98 45.2648 17.4804 45.7652C17.9727 46.2655 18.5821 46.657 19.3085 46.9395C20.0106 47.2139 20.8218 47.3551 21.7418 47.3632H21.7782C22.1898 47.3632 22.5409 47.2179 22.8314 46.9274C23.122 46.6368 23.2672 46.2857 23.2672 45.8741C23.2672 45.4625 23.122 45.1114 22.8314 44.8209C22.5409 44.5303 22.1898 44.385 21.7782 44.385ZM26.5723 32.9446C27.0323 32.9446 27.4237 32.8195 27.7466 32.5693C28.1098 32.2868 28.2914 31.9155 28.2914 31.4555C28.2914 30.9793 28.1178 30.6121 27.7708 30.3538C27.4237 30.0955 27.0242 29.9664 26.5723 29.9664C26.1122 29.9664 25.7208 30.0915 25.3979 30.3417C25.0428 30.6161 24.8653 30.9874 24.8653 31.4555C24.8653 31.9075 25.0428 32.2787 25.3979 32.5693C25.7127 32.8195 26.1041 32.9446 26.5723 32.9446ZM30.7005 32.9446C31.1606 32.9446 31.556 32.8195 31.8869 32.5693C32.2421 32.2868 32.4196 31.9155 32.4196 31.4555C32.4196 30.9793 32.2461 30.6121 31.899 30.3538C31.552 30.0955 31.1525 29.9664 30.7005 29.9664C30.2485 29.9664 29.8611 30.0915 29.5383 30.3417C29.1832 30.6161 29.0056 30.9874 29.0056 31.4555C29.0056 31.9075 29.1832 32.2787 29.5383 32.5693C29.8531 32.8195 30.2405 32.9446 30.7005 32.9446ZM28.6545 44.385C28.1622 44.385 27.7103 44.3003 27.2986 44.1308C26.887 43.9532 26.5319 43.7152 26.2333 43.4165C25.9347 43.1098 25.7006 42.7426 25.5311 42.3149C25.3697 41.879 25.289 41.4028 25.289 40.8863C25.289 40.3778 25.3697 39.9138 25.5311 39.4941C25.7006 39.0663 25.9306 38.6991 26.2212 38.3924C26.5117 38.0776 26.8668 37.8355 27.2865 37.666C27.7062 37.4965 28.1622 37.4118 28.6545 37.4118C29.163 37.4118 29.6231 37.4965 30.0347 37.666C30.4544 37.8274 30.8095 38.0575 31.1 38.3561C31.3906 38.6547 31.6125 39.0179 31.7659 39.4457C31.9273 39.8734 32.008 40.3536 32.008 40.8863C32.008 41.4028 31.9273 41.879 31.7659 42.3149C31.6125 42.7426 31.3906 43.1098 31.1 43.4165C30.8095 43.7152 30.4544 43.9532 30.0347 44.1308C29.6231 44.3003 29.163 44.385 28.6545 44.385ZM34.6351 44.385C34.7642 44.151 34.8853 43.9048 34.9983 43.6465C35.3292 42.8395 35.4946 41.9194 35.4946 40.8863C35.4946 39.8613 35.3292 38.9493 34.9983 38.1503C34.6593 37.3513 34.1912 36.6773 33.5939 36.1285C32.9967 35.5716 32.2784 35.1479 31.439 34.8574C30.5916 34.5749 29.6634 34.4336 28.6545 34.4336C27.6457 34.4336 26.7216 34.5789 25.8822 34.8695C25.0348 35.1681 24.3084 35.5918 23.7031 36.1406C23.0977 36.6975 22.6296 37.3755 22.2987 38.1745C21.9598 38.9735 21.7903 39.8774 21.7903 40.8863C21.7903 41.9194 21.9598 42.8395 22.2987 43.6465C22.4036 43.9048 22.5247 44.151 22.6619 44.385H21.7903V47.3632H37.8311C38.2428 47.3632 38.5938 47.2179 38.8844 46.9274C39.1749 46.6368 39.3202 46.2857 39.3202 45.8741C39.3202 45.4625 39.1749 45.1114 38.8844 44.8209C38.5938 44.5303 38.2428 44.385 37.8311 44.385H34.6351ZM37.8432 47.339C39.6592 47.339 41.0797 46.8467 42.1047 45.862C43.1297 44.8693 43.6422 43.4569 43.6422 41.6248V38.9009H45.0707V35.9227H40.1919L40.1798 41.6248C40.1798 42.5772 39.9659 43.2713 39.5381 43.7071C39.1104 44.1429 38.5454 44.3608 37.8432 44.3608V47.339ZM37.819 52.0725C38.2791 52.0725 38.6745 51.9434 39.0055 51.6851C39.3606 51.4027 39.5381 51.0314 39.5381 50.5714C39.5381 50.1033 39.3646 49.7401 39.0176 49.4818C38.6705 49.2235 38.271 49.0944 37.819 49.0944C37.3671 49.0944 36.9797 49.2195 36.6568 49.4697C36.3017 49.7441 36.1241 50.1113 36.1241 50.5714C36.1241 51.0314 36.3017 51.4027 36.6568 51.6851C36.9716 51.9434 37.359 52.0725 37.819 52.0725ZM41.9594 52.0725C42.4114 52.0725 42.8028 51.9434 43.1337 51.6851C43.4888 51.4027 43.6664 51.0314 43.6664 50.5714C43.6664 50.1033 43.4929 49.7401 43.1458 49.4818C42.7988 49.2235 42.4033 49.0944 41.9594 49.0944C41.4994 49.0944 41.1079 49.2195 40.7851 49.4697C40.43 49.7441 40.2524 50.1113 40.2524 50.5714C40.2524 51.0314 40.43 51.4027 40.7851 51.6851C41.0998 51.9434 41.4913 52.0725 41.9594 52.0725ZM52.4919 46.9879C53.1698 47.23 53.9406 47.3551 54.8042 47.3632H54.8405C55.2521 47.3632 55.6032 47.2179 55.8938 46.9274C56.1924 46.6368 56.3417 46.2857 56.3417 45.8741C56.3417 45.4625 56.1924 45.1114 55.8938 44.8209C55.6032 44.5303 55.2521 44.385 54.8405 44.385C54.1141 44.385 53.5451 44.1631 53.1335 43.7192C52.7219 43.2753 52.5161 42.6296 52.5161 41.7822V37.4118H47.8431V39.821H49.0416V46.5036C49.0416 47.3511 48.8358 47.9927 48.4242 48.4285C48.0126 48.8724 47.4436 49.0944 46.7172 49.0944V52.0725C47.6534 52.0645 48.4766 51.9232 49.1869 51.6488C49.9132 51.3663 50.5226 50.9749 51.0149 50.4745C51.5153 49.9741 51.8906 49.3809 52.1408 48.6949C52.3345 48.1622 52.4515 47.5932 52.4919 46.9879ZM66.1478 47.3632C67.1648 47.3632 68.0929 47.2179 68.9323 46.9274C69.7716 46.6368 70.49 46.2171 71.0872 45.6683C71.6844 45.1114 72.1526 44.4335 72.4915 43.6344C72.8305 42.8354 73 41.9234 73 40.8984C73 39.8653 72.8305 38.9453 72.4915 38.1382C71.8217 36.5401 70.6352 35.4465 68.9323 34.8574C68.0929 34.5749 67.1648 34.4336 66.1478 34.4336H61.8743C60.9058 34.4417 60.0583 34.591 59.332 34.8816V29.9664H54.8405V32.9567H56.0754V44.3729H54.8405V47.3632H66.1478ZM66.1478 44.3729H59.5499V40.0025C59.5499 39.1551 59.7557 38.5135 60.1673 38.0776C60.5789 37.6337 61.1479 37.4118 61.8743 37.4118H66.1478C66.6563 37.4118 67.1163 37.4965 67.5279 37.666C67.9476 37.8355 68.3027 38.0736 68.5933 38.3803C68.8839 38.687 69.1058 39.0542 69.2591 39.482C69.4206 39.9097 69.5013 40.3819 69.5013 40.8984C69.5013 41.4311 69.4206 41.9113 69.2591 42.3391C69.1058 42.7668 68.8839 43.134 68.5933 43.4407C68.3027 43.7394 67.9476 43.9694 67.5279 44.1308C67.1163 44.2922 66.6563 44.3729 66.1478 44.3729Z" fill="black"/>
</svg>
